<?xml version="1.0" encoding="UTF-8"?>
<svg xmlns="http://www.w3.org/2000/svg" width="920" height="520" viewBox="0 0 920 520">
  <rect width="920" height="520" rx="24" fill="#F7FAFF"/>
  
      
    <rect x="80" y="90" width="250" height="320" rx="18" fill="#FFFFFF" stroke="#C9DCFF" stroke-width="2"/>
    <text text-anchor="middle" font-family="Arial, Helvetica, sans-serif" font-size="30" fill="#17324D"><tspan x="205" y="257">docker-compose.yml</tspan></text>
  
      <text x="205" y="190" text-anchor="middle" font-family="Arial" font-size="24" fill="#5E748C">services:</text>
      <text x="205" y="235" text-anchor="middle" font-family="Arial" font-size="24" fill="#5E748C">grafana</text>
      <text x="205" y="275" text-anchor="middle" font-family="Arial" font-size="24" fill="#5E748C">prometheus</text>
      <text x="205" y="315" text-anchor="middle" font-family="Arial" font-size="24" fill="#5E748C">influxdb</text>
      
    <rect x="470" y="90" width="170" height="90" rx="18" fill="#EAF2FF" stroke="#2F6FEB" stroke-width="2"/>
    <text text-anchor="middle" font-family="Arial, Helvetica, sans-serif" font-size="26" fill="#17324D"><tspan x="555" y="142">Grafana</tspan></text>
  
      
    <rect x="680" y="90" width="170" height="90" rx="18" fill="#EAF2FF" stroke="#2F6FEB" stroke-width="2"/>
    <text text-anchor="middle" font-family="Arial, Helvetica, sans-serif" font-size="26" fill="#17324D"><tspan x="765" y="142">Prometheus</tspan></text>
  
      
    <rect x="575" y="250" width="170" height="90" rx="18" fill="#EAF2FF" stroke="#2F6FEB" stroke-width="2"/>
    <text text-anchor="middle" font-family="Arial, Helvetica, sans-serif" font-size="26" fill="#17324D"><tspan x="660" y="302">InfluxDB</tspan></text>
  
      
    <defs>
      <marker id="arrow-330-250-470-135" markerWidth="12" markerHeight="12" refX="10" refY="6" orient="auto">
        <path d="M0,0 L12,6 L0,12 z" fill="#2F6FEB"/>
      </marker>
    </defs>
    <line x1="330" y1="250" x2="470" y2="135" stroke="#2F6FEB" stroke-width="4" marker-end="url(#arrow-330-250-470-135)"/>
  
      
    <defs>
      <marker id="arrow-330-250-680-135" markerWidth="12" markerHeight="12" refX="10" refY="6" orient="auto">
        <path d="M0,0 L12,6 L0,12 z" fill="#2F6FEB"/>
      </marker>
    </defs>
    <line x1="330" y1="250" x2="680" y2="135" stroke="#2F6FEB" stroke-width="4" marker-end="url(#arrow-330-250-680-135)"/>
  
      
    <defs>
      <marker id="arrow-330-250-575-295" markerWidth="12" markerHeight="12" refX="10" refY="6" orient="auto">
        <path d="M0,0 L12,6 L0,12 z" fill="#2F6FEB"/>
      </marker>
    </defs>
    <line x1="330" y1="250" x2="575" y2="295" stroke="#2F6FEB" stroke-width="4" marker-end="url(#arrow-330-250-575-295)"/>
  
    
</svg>