<?xml version="1.0" encoding="UTF-8"?>
<svg xmlns="http://www.w3.org/2000/svg" width="920" height="520" viewBox="0 0 920 520">
  <rect width="920" height="520" rx="24" fill="#F7FAFF"/>
  
      
    <rect x="350" y="180" width="220" height="120" rx="18" fill="#EAF2FF" stroke="#2F6FEB" stroke-width="2"/>
    <text text-anchor="middle" font-family="Arial, Helvetica, sans-serif" font-size="30" fill="#17324D"><tspan x="460" y="237.7">Data Source</tspan><tspan x="460" y="272.2">Layer</tspan></text>
  
      
    <rect x="90" y="100" width="170" height="80" rx="18" fill="#FFFFFF" stroke="#91B4FF" stroke-width="2"/>
    <text text-anchor="middle" font-family="Arial, Helvetica, sans-serif" font-size="22" fill="#17324D"><tspan x="175" y="147">Prometheus</tspan></text>
  
      
    <rect x="90" y="220" width="170" height="80" rx="18" fill="#FFFFFF" stroke="#91B4FF" stroke-width="2"/>
    <text text-anchor="middle" font-family="Arial, Helvetica, sans-serif" font-size="22" fill="#17324D"><tspan x="175" y="267">InfluxDB</tspan></text>
  
      
    <rect x="90" y="340" width="170" height="80" rx="18" fill="#FFFFFF" stroke="#91B4FF" stroke-width="2"/>
    <text text-anchor="middle" font-family="Arial, Helvetica, sans-serif" font-size="22" fill="#17324D"><tspan x="175" y="387">Other APIs</tspan></text>
  
      
    <rect x="670" y="140" width="160" height="70" rx="18" fill="#FFFFFF" stroke="#91B4FF" stroke-width="2"/>
    <text text-anchor="middle" font-family="Arial, Helvetica, sans-serif" font-size="22" fill="#17324D"><tspan x="750" y="182">Explore</tspan></text>
  
      
    <rect x="670" y="250" width="160" height="70" rx="18" fill="#FFFFFF" stroke="#91B4FF" stroke-width="2"/>
    <text text-anchor="middle" font-family="Arial, Helvetica, sans-serif" font-size="22" fill="#17324D"><tspan x="750" y="292">Dashboards</tspan></text>
  
      
    <rect x="670" y="360" width="160" height="70" rx="18" fill="#FFFFFF" stroke="#91B4FF" stroke-width="2"/>
    <text text-anchor="middle" font-family="Arial, Helvetica, sans-serif" font-size="22" fill="#17324D"><tspan x="750" y="402">Alerting</tspan></text>
  
      
    <defs>
      <marker id="arrow-260-140-350-210" markerWidth="12" markerHeight="12" refX="10" refY="6" orient="auto">
        <path d="M0,0 L12,6 L0,12 z" fill="#2F6FEB"/>
      </marker>
    </defs>
    <line x1="260" y1="140" x2="350" y2="210" stroke="#2F6FEB" stroke-width="4" marker-end="url(#arrow-260-140-350-210)"/>
  
      
    <defs>
      <marker id="arrow-260-260-350-240" markerWidth="12" markerHeight="12" refX="10" refY="6" orient="auto">
        <path d="M0,0 L12,6 L0,12 z" fill="#2F6FEB"/>
      </marker>
    </defs>
    <line x1="260" y1="260" x2="350" y2="240" stroke="#2F6FEB" stroke-width="4" marker-end="url(#arrow-260-260-350-240)"/>
  
      
    <defs>
      <marker id="arrow-260-380-350-270" markerWidth="12" markerHeight="12" refX="10" refY="6" orient="auto">
        <path d="M0,0 L12,6 L0,12 z" fill="#2F6FEB"/>
      </marker>
    </defs>
    <line x1="260" y1="380" x2="350" y2="270" stroke="#2F6FEB" stroke-width="4" marker-end="url(#arrow-260-380-350-270)"/>
  
      
    <defs>
      <marker id="arrow-570-215-670-175" markerWidth="12" markerHeight="12" refX="10" refY="6" orient="auto">
        <path d="M0,0 L12,6 L0,12 z" fill="#2F6FEB"/>
      </marker>
    </defs>
    <line x1="570" y1="215" x2="670" y2="175" stroke="#2F6FEB" stroke-width="4" marker-end="url(#arrow-570-215-670-175)"/>
  
      
    <defs>
      <marker id="arrow-570-240-670-285" markerWidth="12" markerHeight="12" refX="10" refY="6" orient="auto">
        <path d="M0,0 L12,6 L0,12 z" fill="#2F6FEB"/>
      </marker>
    </defs>
    <line x1="570" y1="240" x2="670" y2="285" stroke="#2F6FEB" stroke-width="4" marker-end="url(#arrow-570-240-670-285)"/>
  
      
    <defs>
      <marker id="arrow-570-265-670-395" markerWidth="12" markerHeight="12" refX="10" refY="6" orient="auto">
        <path d="M0,0 L12,6 L0,12 z" fill="#2F6FEB"/>
      </marker>
    </defs>
    <line x1="570" y1="265" x2="670" y2="395" stroke="#2F6FEB" stroke-width="4" marker-end="url(#arrow-570-265-670-395)"/>
  
    
</svg>