<?xml version="1.0" encoding="UTF-8"?>
<svg xmlns="http://www.w3.org/2000/svg" width="920" height="520" viewBox="0 0 920 520">
  <rect width="920" height="520" rx="24" fill="#F7FAFF"/>
  
      
    <rect x="120" y="210" width="170" height="90" rx="18" fill="#FFFFFF" stroke="#91B4FF" stroke-width="2"/>
    <text text-anchor="middle" font-family="Arial, Helvetica, sans-serif" font-size="28" fill="#17324D"><tspan x="205" y="262">Browser</tspan></text>
  
      
    <rect x="375" y="210" width="170" height="90" rx="18" fill="#EAF2FF" stroke="#2F6FEB" stroke-width="2"/>
    <text text-anchor="middle" font-family="Arial, Helvetica, sans-serif" font-size="30" fill="#17324D"><tspan x="460" y="262">Grafana</tspan></text>
  
      
    <rect x="650" y="110" width="170" height="80" rx="18" fill="#FFFFFF" stroke="#91B4FF" stroke-width="2"/>
    <text text-anchor="middle" font-family="Arial, Helvetica, sans-serif" font-size="24" fill="#17324D"><tspan x="735" y="157">Prometheus</tspan></text>
  
      
    <rect x="650" y="220" width="170" height="80" rx="18" fill="#FFFFFF" stroke="#91B4FF" stroke-width="2"/>
    <text text-anchor="middle" font-family="Arial, Helvetica, sans-serif" font-size="24" fill="#17324D"><tspan x="735" y="267">InfluxDB</tspan></text>
  
      
    <rect x="650" y="330" width="170" height="80" rx="18" fill="#FFFFFF" stroke="#91B4FF" stroke-width="2"/>
    <text text-anchor="middle" font-family="Arial, Helvetica, sans-serif" font-size="24" fill="#17324D"><tspan x="735" y="377">Alert Rules</tspan></text>
  
      
    <defs>
      <marker id="arrow-290-255-375-255" markerWidth="12" markerHeight="12" refX="10" refY="6" orient="auto">
        <path d="M0,0 L12,6 L0,12 z" fill="#2F6FEB"/>
      </marker>
    </defs>
    <line x1="290" y1="255" x2="375" y2="255" stroke="#2F6FEB" stroke-width="4" marker-end="url(#arrow-290-255-375-255)"/>
  
      
    <defs>
      <marker id="arrow-545-235-650-150" markerWidth="12" markerHeight="12" refX="10" refY="6" orient="auto">
        <path d="M0,0 L12,6 L0,12 z" fill="#2F6FEB"/>
      </marker>
    </defs>
    <line x1="545" y1="235" x2="650" y2="150" stroke="#2F6FEB" stroke-width="4" marker-end="url(#arrow-545-235-650-150)"/>
  
      
    <defs>
      <marker id="arrow-545-255-650-260" markerWidth="12" markerHeight="12" refX="10" refY="6" orient="auto">
        <path d="M0,0 L12,6 L0,12 z" fill="#2F6FEB"/>
      </marker>
    </defs>
    <line x1="545" y1="255" x2="650" y2="260" stroke="#2F6FEB" stroke-width="4" marker-end="url(#arrow-545-255-650-260)"/>
  
      
    <defs>
      <marker id="arrow-545-275-650-370" markerWidth="12" markerHeight="12" refX="10" refY="6" orient="auto">
        <path d="M0,0 L12,6 L0,12 z" fill="#2F6FEB"/>
      </marker>
    </defs>
    <line x1="545" y1="275" x2="650" y2="370" stroke="#2F6FEB" stroke-width="4" marker-end="url(#arrow-545-275-650-370)"/>
  
    
</svg>