<?xml version="1.0" encoding="UTF-8"?>
<svg xmlns="http://www.w3.org/2000/svg" width="920" height="520" viewBox="0 0 920 520">
  <rect width="920" height="520" rx="24" fill="#F7FAFF"/>
  
      
    <rect x="70" y="90" width="780" height="340" rx="18" fill="#FFFFFF" stroke="#C9DCFF" stroke-width="2"/>
    <text text-anchor="middle" font-family="Arial, Helvetica, sans-serif" font-size="30" fill="#17324D"><tspan x="460" y="267">Host Machine</tspan></text>
  
      
    <rect x="170" y="170" width="580" height="90" rx="18" fill="#EAF2FF" stroke="#2F6FEB" stroke-width="2"/>
    <text text-anchor="middle" font-family="Arial, Helvetica, sans-serif" font-size="32" fill="#17324D"><tspan x="460" y="222">Docker Engine</tspan></text>
  
      
    <rect x="120" y="300" width="180" height="80" rx="18" fill="#FFFFFF" stroke="#91B4FF" stroke-width="2"/>
    <text text-anchor="middle" font-family="Arial, Helvetica, sans-serif" font-size="24" fill="#17324D"><tspan x="210" y="347">Grafana</tspan></text>
  
      
    <rect x="370" y="300" width="180" height="80" rx="18" fill="#FFFFFF" stroke="#91B4FF" stroke-width="2"/>
    <text text-anchor="middle" font-family="Arial, Helvetica, sans-serif" font-size="24" fill="#17324D"><tspan x="460" y="347">Prometheus</tspan></text>
  
      
    <rect x="620" y="300" width="180" height="80" rx="18" fill="#FFFFFF" stroke="#91B4FF" stroke-width="2"/>
    <text text-anchor="middle" font-family="Arial, Helvetica, sans-serif" font-size="24" fill="#17324D"><tspan x="710" y="347">InfluxDB</tspan></text>
  
      
    <defs>
      <marker id="arrow-210-260-210-300" markerWidth="12" markerHeight="12" refX="10" refY="6" orient="auto">
        <path d="M0,0 L12,6 L0,12 z" fill="#2F6FEB"/>
      </marker>
    </defs>
    <line x1="210" y1="260" x2="210" y2="300" stroke="#2F6FEB" stroke-width="4" marker-end="url(#arrow-210-260-210-300)"/>
  
      
    <defs>
      <marker id="arrow-460-260-460-300" markerWidth="12" markerHeight="12" refX="10" refY="6" orient="auto">
        <path d="M0,0 L12,6 L0,12 z" fill="#2F6FEB"/>
      </marker>
    </defs>
    <line x1="460" y1="260" x2="460" y2="300" stroke="#2F6FEB" stroke-width="4" marker-end="url(#arrow-460-260-460-300)"/>
  
      
    <defs>
      <marker id="arrow-710-260-710-300" markerWidth="12" markerHeight="12" refX="10" refY="6" orient="auto">
        <path d="M0,0 L12,6 L0,12 z" fill="#2F6FEB"/>
      </marker>
    </defs>
    <line x1="710" y1="260" x2="710" y2="300" stroke="#2F6FEB" stroke-width="4" marker-end="url(#arrow-710-260-710-300)"/>
  
    
</svg>