<?xml version="1.0" encoding="UTF-8"?>
<svg xmlns="http://www.w3.org/2000/svg" width="920" height="520" viewBox="0 0 920 520">
  <rect width="920" height="520" rx="24" fill="#F7FAFF"/>
  
      
    <rect x="60" y="190" width="170" height="100" rx="18" fill="#EAF2FF" stroke="#2F6FEB" stroke-width="2"/>
    <text text-anchor="middle" font-family="Arial, Helvetica, sans-serif" font-size="28" fill="#17324D"><tspan x="145" y="247">Image</tspan></text>
  
      
    <rect x="290" y="190" width="190" height="100" rx="18" fill="#FFFFFF" stroke="#91B4FF" stroke-width="2"/>
    <text text-anchor="middle" font-family="Arial, Helvetica, sans-serif" font-size="28" fill="#17324D"><tspan x="385" y="247">Container</tspan></text>
  
      
    <rect x="550" y="100" width="280" height="90" rx="18" fill="#FFFFFF" stroke="#91B4FF" stroke-width="2"/>
    <text text-anchor="middle" font-family="Arial, Helvetica, sans-serif" font-size="24" fill="#17324D"><tspan x="690" y="144.56">Volume</tspan><tspan x="690" y="172.16">เก็บข้อมูลถาวร</tspan></text>
  
      
    <rect x="550" y="300" width="280" height="90" rx="18" fill="#FFFFFF" stroke="#91B4FF" stroke-width="2"/>
    <text text-anchor="middle" font-family="Arial, Helvetica, sans-serif" font-size="24" fill="#17324D"><tspan x="690" y="344.56">Network</tspan><tspan x="690" y="372.16">เชื่อมหลาย service</tspan></text>
  
      
    <defs>
      <marker id="arrow-230-240-290-240" markerWidth="12" markerHeight="12" refX="10" refY="6" orient="auto">
        <path d="M0,0 L12,6 L0,12 z" fill="#2F6FEB"/>
      </marker>
    </defs>
    <line x1="230" y1="240" x2="290" y2="240" stroke="#2F6FEB" stroke-width="4" marker-end="url(#arrow-230-240-290-240)"/>
  
      
    <defs>
      <marker id="arrow-480-220-550-145" markerWidth="12" markerHeight="12" refX="10" refY="6" orient="auto">
        <path d="M0,0 L12,6 L0,12 z" fill="#2F6FEB"/>
      </marker>
    </defs>
    <line x1="480" y1="220" x2="550" y2="145" stroke="#2F6FEB" stroke-width="4" marker-end="url(#arrow-480-220-550-145)"/>
  
      
    <defs>
      <marker id="arrow-480-260-550-345" markerWidth="12" markerHeight="12" refX="10" refY="6" orient="auto">
        <path d="M0,0 L12,6 L0,12 z" fill="#2F6FEB"/>
      </marker>
    </defs>
    <line x1="480" y1="260" x2="550" y2="345" stroke="#2F6FEB" stroke-width="4" marker-end="url(#arrow-480-260-550-345)"/>
  
      <text x="380" y="160" text-anchor="middle" font-family="Arial" font-size="22" fill="#5E748C">สร้างจาก</text>
    
</svg>