<?xml version="1.0" encoding="UTF-8"?>
<svg xmlns="http://www.w3.org/2000/svg" width="920" height="520" viewBox="0 0 920 520">
  <rect width="920" height="520" rx="24" fill="#F7FAFF"/>
  
      
    <rect x="70" y="190" width="170" height="100" rx="18" fill="#FFFFFF" stroke="#91B4FF" stroke-width="2"/>
    <text text-anchor="middle" font-family="Arial, Helvetica, sans-serif" font-size="28" fill="#17324D"><tspan x="155" y="247">เลือก</tspan></text>
  
      
    <rect x="290" y="190" width="170" height="100" rx="18" fill="#FFFFFF" stroke="#91B4FF" stroke-width="2"/>
    <text text-anchor="middle" font-family="Arial, Helvetica, sans-serif" font-size="28" fill="#17324D"><tspan x="375" y="247">ติดตั้ง</tspan></text>
  
      
    <rect x="510" y="190" width="170" height="100" rx="18" fill="#FFFFFF" stroke="#91B4FF" stroke-width="2"/>
    <text text-anchor="middle" font-family="Arial, Helvetica, sans-serif" font-size="28" fill="#17324D"><tspan x="595" y="247">ตั้งค่า</tspan></text>
  
      
    <rect x="730" y="190" width="120" height="100" rx="18" fill="#EAF2FF" stroke="#2F6FEB" stroke-width="2"/>
    <text text-anchor="middle" font-family="Arial, Helvetica, sans-serif" font-size="28" fill="#17324D"><tspan x="790" y="247">ใช้</tspan></text>
  
      
    <defs>
      <marker id="arrow-240-240-290-240" markerWidth="12" markerHeight="12" refX="10" refY="6" orient="auto">
        <path d="M0,0 L12,6 L0,12 z" fill="#2F6FEB"/>
      </marker>
    </defs>
    <line x1="240" y1="240" x2="290" y2="240" stroke="#2F6FEB" stroke-width="4" marker-end="url(#arrow-240-240-290-240)"/>
  
      
    <defs>
      <marker id="arrow-460-240-510-240" markerWidth="12" markerHeight="12" refX="10" refY="6" orient="auto">
        <path d="M0,0 L12,6 L0,12 z" fill="#2F6FEB"/>
      </marker>
    </defs>
    <line x1="460" y1="240" x2="510" y2="240" stroke="#2F6FEB" stroke-width="4" marker-end="url(#arrow-460-240-510-240)"/>
  
      
    <defs>
      <marker id="arrow-680-240-730-240" markerWidth="12" markerHeight="12" refX="10" refY="6" orient="auto">
        <path d="M0,0 L12,6 L0,12 z" fill="#2F6FEB"/>
      </marker>
    </defs>
    <line x1="680" y1="240" x2="730" y2="240" stroke="#2F6FEB" stroke-width="4" marker-end="url(#arrow-680-240-730-240)"/>
  
    
</svg>