<?xml version="1.0" encoding="UTF-8"?>
<svg xmlns="http://www.w3.org/2000/svg" width="920" height="520" viewBox="0 0 920 520">
  <rect width="920" height="520" rx="24" fill="#F7FAFF"/>
  
      
    <rect x="60" y="190" width="180" height="100" rx="18" fill="#FFFFFF" stroke="#91B4FF" stroke-width="2"/>
    <text text-anchor="middle" font-family="Arial, Helvetica, sans-serif" font-size="24" fill="#17324D"><tspan x="150" y="247">create-plugin</tspan></text>
  
      
    <rect x="280" y="190" width="140" height="100" rx="18" fill="#FFFFFF" stroke="#91B4FF" stroke-width="2"/>
    <text text-anchor="middle" font-family="Arial, Helvetica, sans-serif" font-size="28" fill="#17324D"><tspan x="350" y="247">Code</tspan></text>
  
      
    <rect x="460" y="190" width="160" height="100" rx="18" fill="#FFFFFF" stroke="#91B4FF" stroke-width="2"/>
    <text text-anchor="middle" font-family="Arial, Helvetica, sans-serif" font-size="28" fill="#17324D"><tspan x="540" y="247">Watch</tspan></text>
  
      
    <rect x="660" y="190" width="180" height="100" rx="18" fill="#EAF2FF" stroke="#2F6FEB" stroke-width="2"/>
    <text text-anchor="middle" font-family="Arial, Helvetica, sans-serif" font-size="28" fill="#17324D"><tspan x="750" y="247">Grafana</tspan></text>
  
      
    <defs>
      <marker id="arrow-240-240-280-240" markerWidth="12" markerHeight="12" refX="10" refY="6" orient="auto">
        <path d="M0,0 L12,6 L0,12 z" fill="#2F6FEB"/>
      </marker>
    </defs>
    <line x1="240" y1="240" x2="280" y2="240" stroke="#2F6FEB" stroke-width="4" marker-end="url(#arrow-240-240-280-240)"/>
  
      
    <defs>
      <marker id="arrow-420-240-460-240" markerWidth="12" markerHeight="12" refX="10" refY="6" orient="auto">
        <path d="M0,0 L12,6 L0,12 z" fill="#2F6FEB"/>
      </marker>
    </defs>
    <line x1="420" y1="240" x2="460" y2="240" stroke="#2F6FEB" stroke-width="4" marker-end="url(#arrow-420-240-460-240)"/>
  
      
    <defs>
      <marker id="arrow-620-240-660-240" markerWidth="12" markerHeight="12" refX="10" refY="6" orient="auto">
        <path d="M0,0 L12,6 L0,12 z" fill="#2F6FEB"/>
      </marker>
    </defs>
    <line x1="620" y1="240" x2="660" y2="240" stroke="#2F6FEB" stroke-width="4" marker-end="url(#arrow-620-240-660-240)"/>
  
    
</svg>